<svg id="Layer_1" data-name="Layer 1" xmlns="http://www.w3.org/2000/svg" viewBox="0 0 153.13 46.88"><defs><style>.cls-1{fill:#261c02;}.cls-2{fill:#a1a1a4;}.cls-3{fill:#0069aa;}</style></defs><title>Artboard 1</title><path class="cls-1" d="M66.53,21.43a5.16,5.16,0,0,1-5.09,4,5.23,5.23,0,1,1,0-10.45,5.15,5.15,0,0,1,5.12,4h-2.7A2.61,2.61,0,0,0,61.4,17.2a2.79,2.79,0,0,0-2.69,2.94,2.82,2.82,0,0,0,2.71,3,2.69,2.69,0,0,0,2.42-1.7Z"/><path class="cls-1" d="M68.43,16.37h4.9v2H70.59v1.37h2.66v2H70.59v1.51h2.74v2h-4.9Z"/><path class="cls-1" d="M75.33,16.37h1.95l3.41,5.55,0,0-.1-5.52h2.16V25.2h-2l-3.37-5.37h0l.06,5.36H75.33Z"/><path class="cls-1" d="M86,18.36H84.3v-2H90v2H88.29V25.2H86Z"/><path class="cls-1" d="M91.53,16.37h2.79A3.92,3.92,0,0,1,97,17a3.06,3.06,0,0,1,1.09,2.41,2.68,2.68,0,0,1-2.2,2.78l2.4,3H95.75l-2-2.85h0V25.2H91.53Zm2.16,4.44h.8c1.32,0,1.48-.83,1.48-1.26,0-.8-.58-1.19-1.46-1.19h-.82Z"/><path class="cls-1" d="M99.91,16.37h4.9v2h-2.74v1.37h2.66v2h-2.66v1.51h2.74v2h-4.9Z"/><path class="cls-1" d="M116.91,21.43a5.16,5.16,0,0,1-5.09,4,5.23,5.23,0,1,1,0-10.45,5.15,5.15,0,0,1,5.12,4h-2.7a2.61,2.61,0,0,0-2.44-1.76,2.79,2.79,0,0,0-2.69,2.94,2.82,2.82,0,0,0,2.71,3,2.69,2.69,0,0,0,2.42-1.7Z"/><path class="cls-1" d="M123.08,16.21a4.58,4.58,0,1,1-4.65,4.69,5,5,0,0,1,.35-1.88A4.59,4.59,0,0,1,123.08,16.21Zm0,7.18a2.48,2.48,0,0,0,2.37-2.59,2.49,2.49,0,0,0-2.4-2.61,2.46,2.46,0,0,0-2.41,2.58A2.48,2.48,0,0,0,123.12,23.39Z"/><path class="cls-1" d="M131.79,16.37v5.33c0,.6,0,1.68,1.15,1.68s1.12-1,1.12-1.68V16.37h2.26v5.33a3.38,3.38,0,0,1-.88,2.71,3.3,3.3,0,0,1-2.47,1,3.56,3.56,0,0,1-2.54-.94,3.37,3.37,0,0,1-.88-2.72V16.37Z"/><path class="cls-1" d="M138.48,16.37h2.79A3.92,3.92,0,0,1,144,17a3.06,3.06,0,0,1,1.09,2.41,2.68,2.68,0,0,1-2.2,2.78l2.4,3h-2.58l-2-2.85h0V25.2h-2.16Zm2.16,4.44h.8c1.32,0,1.48-.83,1.48-1.26,0-.8-.59-1.19-1.46-1.19h-.82Z"/><path class="cls-1" d="M148.23,18.36h-1.74v-2h5.73v2h-1.73V25.2h-2.26Z"/><path class="cls-2" d="M68.26,28.59h.94a2.4,2.4,0,0,1,1.7.48,2.16,2.16,0,0,1,.68,1.6,2,2,0,0,1-1,1.79,2.94,2.94,0,0,1-1.37.27h-1ZM69,32h.16a1.9,1.9,0,0,0,1-.2,1.3,1.3,0,0,0,.62-1.14,1.37,1.37,0,0,0-.44-1,1.66,1.66,0,0,0-1.2-.35H69Z"/><path class="cls-2" d="M75.39,28.59h2.22v.71H76.16v1h1.4V31h-1.4v1h1.46v.71H75.39Z"/><path class="cls-2" d="M81.23,28.59H82l1.11,3.14h0l1.11-3.14h.8l-1.6,4.13h-.62Z"/><path class="cls-2" d="M88.67,28.59h2.22v.71H89.43v1h1.4V31h-1.4v1h1.46v.71H88.67Z"/><path class="cls-2" d="M94.86,28.59h.76V32h1.26v.71h-2Z"/><path class="cls-2" d="M102.5,28.51a2.15,2.15,0,1,1-2.16,2.16A2.15,2.15,0,0,1,102.5,28.51Zm0,3.59a1.44,1.44,0,1,0-1.4-1.43A1.42,1.42,0,0,0,102.5,32.09Z"/><path class="cls-2" d="M108.47,28.59h1a1.65,1.65,0,0,1,1.21.33,1.35,1.35,0,0,1,0,1.9,1.65,1.65,0,0,1-1.21.33h-.27v1.58h-.76Zm.76,1.84h.25c.33,0,.87,0,.87-.56s-.52-.56-.84-.56h-.27Z"/><path class="cls-2" d="M114.78,28.59h1.06l1.1,3.13h0L118,28.59h1.06v4.13h-.77v-3.1h0l-1.06,3.1h-.65l-1.06-3.1h0v3.1h-.76Z"/><path class="cls-2" d="M123,28.59h2.22v.71h-1.46v1h1.4V31h-1.4v1h1.46v.71H123Z"/><path class="cls-2" d="M129.21,28.59h.87l1.71,3h0v-3h.77v4.13h-.86l-1.73-3h0v3h-.77Z"/><path class="cls-2" d="M137,29.31h-.76v-.71h2.3v.71h-.77v3.42H137Z"/><path class="cls-2" d="M142.63,31.54a.56.56,0,0,0,1.12,0c0-.42-.27-.5-.79-.7a1.21,1.21,0,0,1-1-1.19,1.17,1.17,0,0,1,1.21-1.18,1.21,1.21,0,0,1,1.22,1.18h-.78a.44.44,0,0,0-.46-.46.41.41,0,0,0-.42.42c0,.36.27.44.69.58a1.33,1.33,0,0,1,1.08,1.27,1.28,1.28,0,0,1-1.34,1.32,1.32,1.32,0,0,1-1.35-1.27Z"/><path class="cls-3" d="M.81,23.49A22.73,22.73,0,1,1,23.54,46.21,22.72,22.72,0,0,1,.81,23.49Zm27.57,3.15a5.8,5.8,0,1,1,.09-6.25h4.34a9.77,9.77,0,1,0,0,6.25Zm9.17,0a14.35,14.35,0,1,1,0-6.25h4a18.31,18.31,0,1,0,0,6.25Z"/></svg>