<svg xmlns="http://www.w3.org/2000/svg" xmlns:xlink="http://www.w3.org/1999/xlink" width="210" height="78.9" viewBox="0 0 210 78.9"><defs><path id="a" d="M0 0h210v78.9H0z"/></defs><clipPath id="b"><use xlink:href="#a" overflow="visible"/></clipPath><path clip-path="url(#b)" fill="#004282" d="M210 39.4c0 21.8-47 39.4-105 39.4C47 78.9 0 61.2 0 39.4 0 17.7 47 0 105 0s105 17.7 105 39.4"/><defs><path id="c" d="M0 0h210v78.9H0z"/></defs><clipPath id="d"><use xlink:href="#c" overflow="visible"/></clipPath><path clip-path="url(#d)" fill="#FFF" d="M20.1 51.4V32.6c0-1.2-.7-1.8-1.7-1.8s-2 .7-3.1 1.5v19h-4.8V27.2H15v2.4c2-1.8 3-2.9 5.3-2.9 2.4 0 3.2.9 4.2 2.9 2.3-2.3 3.6-2.9 5.4-2.9 3 0 4.5 1.9 4.5 5.1v19.6h-4.8V32.6c0-1.2-.8-1.8-1.7-1.8-1 0-2 .7-3 1.5v19h-4.8v.1z"/><defs><path id="e" d="M0 0h210v78.9H0z"/></defs><clipPath id="f"><use xlink:href="#e" overflow="visible"/></clipPath><path clip-path="url(#f)" fill="#FFF" d="M36 34.3c.3-4.9 3.2-7.6 7.7-7.6s7 2.2 7 6.6v15.5c0 .8.2 1.8.3 2.6h-4.6c0-.7-.2-1.3-.3-1.9-1.8 1.5-3.3 2.3-5.6 2.3-3.3 0-4.9-2.3-4.9-5.5 0-5.3 3.3-8.198 10.2-11V34c0-2-.8-3.1-2.4-3.1-2.2 0-2.7 1.4-2.7 3.4H36zm9.9 4.8c-4.4 2.6-5.4 4.3-5.4 6.4 0 1.6.8 2.2 2.2 2.2 1.3 0 2.4-1 3.2-2.3v-6.3z"/><defs><path id="g" d="M0 0h210v78.9H0z"/></defs><clipPath id="h"><use xlink:href="#g" overflow="visible"/></clipPath><path clip-path="url(#h)" fill="#FFF" d="M51.9 31.3v-4.1h2.7v-6.5h4.8v6.5h3.2v4.1h-3.2v14c0 1.3.5 2 1.6 2h1.6v4.3c-.6.2-1.2.3-2.4.3-3.6 0-5.6-1.8-5.6-5.5V31.3h-2.7z"/><defs><path id="i" d="M0 0h210v78.9H0z"/></defs><clipPath id="j"><use xlink:href="#i" overflow="visible"/></clipPath><path clip-path="url(#j)" fill="#FFF" d="M62.1 31.3v-4.1h2.7v-6.5h4.8v6.5h3.2v4.1h-3.2v14c0 1.3.5 2 1.6 2h1.6v4.3c-.6.2-1.2.3-2.4.3-3.6 0-5.6-1.8-5.6-5.5V31.3h-2.7z"/><g><defs><path id="k" d="M0 0h210v78.9H0z"/></defs><clipPath id="l"><use xlink:href="#k" overflow="visible"/></clipPath><path clip-path="url(#l)" fill="#FFF" d="M74.5 34.3c.3-4.9 3.2-7.6 7.7-7.6s7 2.2 7 6.6v15.5c0 .8.2 1.8.3 2.6h-4.6c0-.7-.2-1.3-.3-1.9-1.8 1.5-3.3 2.3-5.6 2.3-3.3 0-4.9-2.3-4.9-5.5 0-5.3 3.3-8.198 10.2-11V34c0-2-.8-3.1-2.4-3.1-2.2 0-2.7 1.4-2.7 3.4h-4.7zm9.9 4.8C80 41.7 79 43.4 79 45.5c0 1.6.8 2.2 2.2 2.2 1.3 0 2.4-1 3.2-2.3v-6.3z"/></g><g><defs><path id="m" d="M0 0h210v78.9H0z"/></defs><clipPath id="n"><use xlink:href="#m" overflow="visible"/></clipPath><path clip-path="url(#n)" fill="#FFF" d="M101 51.4V32.6c0-1.2-.7-1.8-1.7-1.8s-2 .7-3.1 1.5v19h-4.8V27.2H96v2.4c2-1.8 3-2.9 5.3-2.9 2.4 0 3.2.9 4.2 2.9 2.3-2.3 3.6-2.9 5.3-2.9 3 0 4.5 1.9 4.5 5.1v19.6h-4.8V32.6c0-1.2-.8-1.8-1.7-1.8-1 0-2 .7-3 1.5v19H101v.1z"/></g><g><defs><path id="o" d="M0 0h210v78.9H0z"/></defs><clipPath id="p"><use xlink:href="#o" overflow="visible"/></clipPath><path clip-path="url(#p)" fill="#FFF" d="M127.4 27.2h4.8l-6 26c-1 4.4-3 5.8-6.5 5.8h-2v-4.1h1.2c2.4 0 3.2-1.4 3.2-3.9 0-1-.2-2-.5-3.2l-5-20.6h4.9l3.1 15.5h.1l2.7-15.5z"/></g><g><defs><path id="q" d="M0 0h210v78.9H0z"/></defs><clipPath id="r"><use xlink:href="#q" overflow="visible"/></clipPath><path clip-path="url(#r)" fill="#C7C8CA" d="M135.5 27.2v10.5h6.8V27.2h2.5v24.2h-2.5V39.9h-6.8v11.5h-2.4V27.2"/></g><g><defs><path id="s" d="M0 0h210v78.9H0z"/></defs><clipPath id="t"><use xlink:href="#s" overflow="visible"/></clipPath><path clip-path="url(#t)" fill="#C7C8CA" d="M152.3 51.8c-3.9 0-6.5-3.4-6.5-12.5 0-9 2.6-12.5 6.5-12.5s6.5 3.4 6.5 12.5c0 9-2.6 12.5-6.5 12.5m0-22.7c-2.2 0-4 2-4 10.2s1.8 10.2 4 10.2 4-2 4-10.2-1.7-10.2-4-10.2"/></g><g><defs><path id="u" d="M0 0h210v78.9H0z"/></defs><clipPath id="v"><use xlink:href="#u" overflow="visible"/></clipPath><path clip-path="url(#v)" fill="#C7C8CA" d="M164.1 27.2l4.1 18.3 3.9-18.3h4v24.2h-2.3V29.2h-.1l-4.8 22.2h-1.6l-4.8-22.2v22.2h-2.3V27.2"/></g><g><defs><path id="w" d="M0 0h210v78.9H0z"/></defs><clipPath id="x"><use xlink:href="#w" overflow="visible"/></clipPath><path clip-path="url(#x)" fill="#C7C8CA" d="M188.6 27.2v2.2h-8v8.3h5.9v2.2h-5.9v9.3h8.4v2.2h-10.9V27.2"/></g><g><defs><path id="y" d="M0 0h210v78.9H0z"/></defs><clipPath id="z"><use xlink:href="#y" overflow="visible"/></clipPath><path clip-path="url(#z)" fill="#C7C8CA" d="M197.9 33.4c-.2-2.5-1.1-4.4-3.5-4.4-1.9 0-3.2 1.3-3.2 3.2 0 5.5 9.3 5.5 9.3 13.3 0 3.9-2.1 6.2-5.9 6.2-3.6 0-5.8-2.8-5.8-6.8h2.3c.1 2.9 1.3 4.6 3.8 4.6 2.1 0 3.4-1.4 3.4-4 0-5.5-9.3-6.1-9.3-13.1 0-3.4 2.2-5.6 5.6-5.6 3.3 0 5.5 2.4 5.7 6.6h-2.4z"/></g></svg>